<?xml version="1.0" encoding="UTF-8"?>
<svg version="1.1" xmlns="http://www.w3.org/2000/svg" width="100" height="100">
<path d="M0 0 C4.86854638 3.65140979 9.7198407 7.30001974 14.5 11.0625 C15.08749023 11.52438721 15.67498047 11.98627441 16.28027344 12.4621582 C20.97088955 16.16232795 25.61552958 19.91737119 30.25 23.6875 C30.92458252 24.23365967 31.59916504 24.77981934 32.29418945 25.3425293 C35.24848393 27.73820672 38.18561028 30.14385605 41.05859375 32.63671875 C41.92613281 33.37535156 42.79367188 34.11398438 43.6875 34.875 C44.41324219 35.51179688 45.13898437 36.14859375 45.88671875 36.8046875 C47.929428 38.1771919 47.929428 38.1771919 50.30078125 38.06640625 C54.3211617 36.47803597 57.23460399 33.85098974 60.5 31.0625 C61.93374712 29.86711047 63.36865747 28.67311483 64.8046875 27.48046875 C65.51463867 26.8879834 66.22458984 26.29549805 66.95605469 25.68505859 C70.80535387 22.5116397 74.78530465 19.51446837 78.75390625 16.4921875 C81.11570514 14.68932096 83.4515381 12.85687821 85.77734375 11.0078125 C86.40882324 10.50652832 87.04030273 10.00524414 87.69091797 9.48876953 C88.9071244 8.52132539 90.12112367 7.55109772 91.33251953 6.57763672 C94.17136205 4.32265197 96.73023443 2.63488279 100 1 C100 21.13 100 41.26 100 62 C67 62 34 62 0 62 C0 41.54 0 21.08 0 0 Z " fill="#000000" transform="translate(0,24)"/>
<path d="M0 0 C33 0 66 0 100 0 C100 7 100 7 98.48828125 9.08203125 C97.77027344 9.65308594 97.05226563 10.22414063 96.3125 10.8125 C95.06726563 11.82376953 95.06726563 11.82376953 93.796875 12.85546875 C92.87390625 13.56316406 91.9509375 14.27085938 91 15 C90.05640625 15.73863281 89.1128125 16.47726563 88.140625 17.23828125 C86.01386168 18.88733251 83.88198538 20.52574641 81.73828125 22.15234375 C77.38095459 25.46154068 73.06615122 28.82488069 68.75 32.1875 C67.28646188 33.32682747 65.82292028 34.46615048 64.359375 35.60546875 C63.65361328 36.15509277 62.94785156 36.7047168 62.22070312 37.27099609 C58.48164052 40.18217039 54.74079027 43.09104625 51 46 C47.38410141 44.26477323 44.42695905 42.15085277 41.25 39.6875 C40.68925781 39.25308594 40.12851562 38.81867187 39.55078125 38.37109375 C34.29138948 34.27406209 29.12934704 30.05883635 23.96850586 25.83886719 C18.64530516 21.49586654 13.23573777 17.28214698 7.76953125 13.12109375 C6.85558594 12.42113281 5.94164062 11.72117187 5 11 C4.05511719 10.39285156 3.11023438 9.78570312 2.13671875 9.16015625 C0 7 0 7 0 0 Z " fill="#000000" transform="translate(0,14)"/>
</svg>
