<?xml version="1.0" encoding="UTF-8"?>
<svg version="1.1" xmlns="http://www.w3.org/2000/svg" width="100" height="100">
<path d="M0 0 C5.46185727 2.83716614 10.82235739 8.54519718 12.76953125 14.38671875 C12.82533709 16.43913359 12.87829397 18.4917222 12.90820312 20.54467773 C13.08928494 29.46205159 14.34365199 35.09569349 19.76953125 42.38671875 C22.48027539 50.51895117 21.83540866 60.32071664 18.20703125 68.01171875 C15.40636977 72.84089673 12.50650603 76.4187387 7.76953125 79.38671875 C7.14820313 79.79664062 6.526875 80.2065625 5.88671875 80.62890625 C-1.09289113 84.47698014 -9.4909192 84.63726399 -17.23046875 83.38671875 C-24.80671138 80.98573704 -30.97807167 77.17365714 -35.23046875 70.38671875 C-35.64039063 69.76539062 -36.0503125 69.1440625 -36.47265625 68.50390625 C-40.29093932 61.57833076 -40.5611365 53.07627964 -39.23046875 45.38671875 C-37.6114554 40.88038484 -35.68544661 35.84169661 -32.23046875 32.38671875 C-32.15452728 30.35950337 -32.08372515 28.33192892 -32.04248047 26.30371094 C-31.81302744 17.12920334 -31.15408764 11.25635059 -24.44921875 4.625 C-17.66669896 -1.53962075 -8.87680665 -2.44073318 0 0 Z M-23.48046875 10.63671875 C-27.01892194 16.19714519 -27.49979939 21.92278341 -27.23046875 28.38671875 C-26.69421875 28.09796875 -26.15796875 27.80921875 -25.60546875 27.51171875 C-16.98179356 23.42681998 -7.18727485 22.72568628 2.01953125 25.29296875 C4.34808512 26.21909813 6.56441125 27.19934644 8.76953125 28.38671875 C9.19997087 21.78664462 8.58691828 14.62149645 4.08203125 9.44921875 C-1.36796299 4.72589041 -5.03515397 4.03646454 -12.24609375 4.10546875 C-17.43071342 4.59407165 -19.93863207 7.09488207 -23.48046875 10.63671875 Z M-14.23046875 50.38671875 C-14.56380208 53.38671875 -14.56380208 53.38671875 -14.23046875 56.38671875 C-13.57046875 57.04671875 -12.91046875 57.70671875 -12.23046875 58.38671875 C-11.51638541 60.37028358 -10.84429133 62.36987312 -10.23046875 64.38671875 C-9.24046875 64.05671875 -8.25046875 63.72671875 -7.23046875 63.38671875 C-6.07211202 60.41168753 -6.07211202 60.41168753 -5.23046875 57.38671875 C-4.90046875 57.05671875 -4.57046875 56.72671875 -4.23046875 56.38671875 C-3.98041489 53.42854768 -3.98041489 53.42854768 -4.23046875 50.38671875 C-6.11547146 48.07108788 -6.11547146 48.07108788 -9.23046875 48.13671875 C-12.34546604 48.07108788 -12.34546604 48.07108788 -14.23046875 50.38671875 Z " fill="#000000" transform="translate(59.23046875,8.61328125)"/>
</svg>
