<?xml version="1.0" encoding="UTF-8"?>
<svg version="1.1" xmlns="http://www.w3.org/2000/svg" width="100" height="100">
<path d="M0 0 C6.02820808 3.50653396 11.25644826 7.44600935 15.17578125 13.265625 C16.11328125 17.015625 16.11328125 17.015625 16.17578125 20.265625 C13.50384223 22.93756402 12.2055137 22.51878628 8.47265625 22.52441406 C7.27801758 22.53071838 6.08337891 22.53702271 4.85253906 22.54351807 C3.55670898 22.5394696 2.26087891 22.53542114 0.92578125 22.53125 C-0.41178457 22.53259678 -1.74934992 22.53453743 -3.08691406 22.53704834 C-5.89132341 22.539999 -8.69560544 22.53570394 -11.5 22.52636719 C-15.09826797 22.51497254 -18.69623761 22.52153234 -22.29449463 22.53351212 C-25.05682633 22.54073236 -27.81908708 22.53844206 -30.5814209 22.53325653 C-32.55460808 22.53126975 -34.52779801 22.53735342 -36.50097656 22.54351807 C-37.69561523 22.53721375 -38.89025391 22.53090942 -40.12109375 22.52441406 C-41.17651367 22.52282288 -42.23193359 22.52123169 -43.31933594 22.51959229 C-45.82421875 22.265625 -45.82421875 22.265625 -47.82421875 20.265625 C-48.03360051 15.13577179 -46.60832928 12.55931466 -43.32421875 8.640625 C-32.39691365 -2.85458664 -14.5897858 -6.96386415 0 0 Z " fill="#000000" transform="translate(65.82421875,73.734375)"/>
<path d="M0 0 C4.44489154 3.72130454 7.34879782 6.98394324 7.9609375 12.88671875 C8.16580347 19.04057738 7.98997338 23.59670216 4.21875 28.625 C-0.22807773 33.34408249 -3.92508119 34.50183018 -10.25 34.8125 C-16.09722315 34.5929547 -20.03833766 33.27757605 -24.3125 29.25 C-28.51552736 24.10129149 -28.93784394 19.70776384 -28.69921875 13.125 C-27.98178764 7.79137076 -25.81266643 4.75016643 -22 0.9375 C-14.85578297 -3.54840372 -7.39559006 -3.90710418 0 0 Z " fill="#000000" transform="translate(60.3125,30.75)"/>
</svg>
