<?xml version="1.0" encoding="UTF-8"?>
<svg version="1.1" xmlns="http://www.w3.org/2000/svg" width="100" height="100">
<path d="M0 0 C4.5418532 1.81674128 6.60790595 6.79833283 9.01171875 10.8046875 C10.15572667 12.34770922 11.30144424 13.8894655 12.44921875 15.4296875 C15.38932868 19.91473455 15.85579154 22.4870289 15.01171875 27.8046875 C13.88642434 30.60830563 12.55698485 33.21084798 11.01171875 35.8046875 C18.30648637 43.98944856 25.77286317 51.5710082 34.01171875 58.8046875 C34.49640625 58.5159375 34.98109375 58.2271875 35.48046875 57.9296875 C36.15078125 57.5584375 36.82109375 57.1871875 37.51171875 56.8046875 C38.16140625 56.4334375 38.81109375 56.0621875 39.48046875 55.6796875 C44.10434629 54.08131008 47.92040567 53.79543808 52.32568359 55.92138672 C54.77280234 57.44270493 57.11265207 59.05626183 59.44921875 60.7421875 C60.26326172 61.30615234 61.07730469 61.87011719 61.91601562 62.45117188 C68.92595555 67.33298992 68.92595555 67.33298992 69.63671875 71.2421875 C69.61670257 76.78666928 66.02322609 79.80414799 62.37109375 83.60546875 C56.32569487 89.24050115 56.32569487 89.24050115 51.51171875 89.3046875 C33.85471487 88.63351484 18.92682975 73.44528277 7.01171875 61.8046875 C6.15984985 60.98786499 6.15984985 60.98786499 5.29077148 60.15454102 C1.10683734 56.07969806 -2.56249933 51.79827012 -6.05078125 47.1171875 C-6.82675659 46.0804187 -6.82675659 46.0804187 -7.6184082 45.02270508 C-13.86155156 36.49555686 -19.55980774 27.29504947 -19.46484375 16.4375 C-18.59963988 11.65760322 -15.45979934 8.9804576 -11.98828125 5.8046875 C-11.48683594 5.27488281 -10.98539063 4.74507812 -10.46875 4.19921875 C-7.31541157 1.09800161 -4.36244546 -0.28252028 0 0 Z " fill="#000000" transform="translate(24.98828125,5.1953125)"/>
</svg>
