<?xml version="1.0" encoding="UTF-8"?>
<svg version="1.1" xmlns="http://www.w3.org/2000/svg" width="100" height="100">
<path d="M0 0 C1.20269531 -0.02578125 2.40539063 -0.0515625 3.64453125 -0.078125 C10.05772887 0.51582054 14.0549769 3.46497325 18.1875 8.25 C20.90264157 12.10603168 22.77540681 15.39976881 22.1875 20.25 C20.8675 20.58 19.5475 20.91 18.1875 21.25 C17.90777344 20.58613281 17.62804687 19.92226563 17.33984375 19.23828125 C15.09676461 14.29773716 13.06974914 9.93963708 8.34375 7.02734375 C2.44784976 4.90182899 -3.69566661 5.2671845 -9.3125 7.875 C-15.89978373 14.13291955 -16.52806202 19.4608665 -16.8125 28.25 C-16.11640625 27.816875 -16.11640625 27.816875 -15.40625 27.375 C-8.03865075 23.41628996 0.03198746 22.93224407 8.1875 24.25 C15.76374263 26.65098171 21.93510292 30.46306161 26.1875 37.25 C26.59742188 37.87132812 27.00734375 38.49265625 27.4296875 39.1328125 C31.27776139 46.11242238 31.43804524 54.51045045 30.1875 62.25 C27.78651829 69.82624263 23.97443839 75.99760292 17.1875 80.25 C16.56617188 80.65992187 15.94484375 81.06984375 15.3046875 81.4921875 C8.32507762 85.34026139 -0.07295045 85.50054524 -7.8125 84.25 C-15.38874263 81.84901829 -21.56010292 78.03693839 -25.8125 71.25 C-26.22242188 70.62867187 -26.63234375 70.00734375 -27.0546875 69.3671875 C-30.87297057 62.44161201 -31.14316775 53.93956089 -29.8125 46.25 C-28.19348665 41.74366609 -26.26747786 36.70497786 -22.8125 33.25 C-22.64181106 29.57070516 -22.51547106 25.89775239 -22.47070312 22.21484375 C-22.22951924 15.3831701 -20.53314253 11.16385515 -15.77734375 6.0703125 C-15.10832031 5.51085937 -14.43929687 4.95140625 -13.75 4.375 C-13.07839844 3.80007812 -12.40679687 3.22515625 -11.71484375 2.6328125 C-7.9916037 -0.0736084 -4.46496196 0.05706022 0 0 Z M-4.8125 51.25 C-5.14583333 54.25 -5.14583333 54.25 -4.8125 57.25 C-4.1525 57.91 -3.4925 58.57 -2.8125 59.25 C-2.09841666 61.23356483 -1.42632258 63.23315437 -0.8125 65.25 C0.1775 64.92 1.1675 64.59 2.1875 64.25 C3.34585673 61.27496878 3.34585673 61.27496878 4.1875 58.25 C4.5175 57.92 4.8475 57.59 5.1875 57.25 C5.43755386 54.29182893 5.43755386 54.29182893 5.1875 51.25 C3.30249729 48.93436913 3.30249729 48.93436913 0.1875 49 C-2.92749729 48.93436913 -2.92749729 48.93436913 -4.8125 51.25 Z " fill="#000000" transform="translate(49.8125,7.75)"/>
</svg>
